<svg xmlns="http://www.w3.org/2000/svg" width="32" height="32" viewBox="0 0 256 256"><path fill="currentColor" d="M164.3 177.2a52 52 0 1 0-72.6 0a75.5 75.5 0 0 0-32.1 33.5a12 12 0 0 0 21.6 10.6a52 52 0 0 1 93.6 0a12 12 0 0 0 10.8 6.7a12.3 12.3 0 0 0 5.2-1.2a12 12 0 0 0 5.6-16.1a75.5 75.5 0 0 0-32.1-33.5ZM100 140a28 28 0 1 1 28 28a28.1 28.1 0 0 1-28-28Zm151.2 9.6a12 12 0 0 1-16.8-2.4a47.4 47.4 0 0 0-31.6-18.7a12 12 0 0 1-9.9-9.1a7.8 7.8 0 0 1-.5-1.4a11.9 11.9 0 0 1 8.6-14.6a20 20 0 1 0-23.1-28a12 12 0 1 1-21.6-10.3a44 44 0 1 1 73.4 47.2a71.1 71.1 0 0 1 23.9 20.5a12 12 0 0 1-2.4 16.8Zm-198-21.1a47.4 47.4 0 0 0-31.6 18.7A12.2 12.2 0 0 1 12 152a12.2 12.2 0 0 1-7.2-2.4a12 12 0 0 1-2.4-16.8a71.1 71.1 0 0 1 23.9-20.5a44 44 0 1 1 73.4-47.2a12 12 0 1 1-21.6 10.3a20 20 0 1 0-23.1 28a11.9 11.9 0 0 1 8.6 14.6a7.8 7.8 0 0 1-.5 1.4a12 12 0 0 1-9.9 9.1Z"/></svg>