<svg xmlns="http://www.w3.org/2000/svg" width="32" height="32" viewBox="0 0 256 256"><path fill="currentColor" d="M129.2 156.9a64 64 0 1 0-82.4 0a100.1 100.1 0 0 0-40.6 33.6a12 12 0 0 0 2.9 16.7a11.8 11.8 0 0 0 6.9 2.2a11.9 11.9 0 0 0 9.8-5.1a76 76 0 0 1 124.4 0a12 12 0 1 0 19.6-13.8a100.1 100.1 0 0 0-40.6-33.6ZM48 108a40 40 0 1 1 40 40a40 40 0 0 1-40-40Zm200.4 99.2a11.8 11.8 0 0 1-6.9 2.2a12.1 12.1 0 0 1-9.8-5.1a76.2 76.2 0 0 0-62.2-32.3a12 12 0 0 1 0-24a40 40 0 0 0 0-80a39.1 39.1 0 0 0-10.8 1.5a12 12 0 1 1-6.5-23.1a62.8 62.8 0 0 1 17.3-2.4a63.9 63.9 0 0 1 41.2 112.9a100.1 100.1 0 0 1 40.6 33.6a11.9 11.9 0 0 1-2.9 16.7Z"/></svg>